<svg width="21" height="46" viewBox="0 0 21 46" fill="none" xmlns="http://www.w3.org/2000/svg">
<mask id="path-1-inside-1_0_1548" fill="white">
<path d="M10.5 0C16.299 0 21 4.70101 21 10.5C21 10.6676 20.9951 10.8343 20.9873 11H21V36H20.9873C20.7263 41.5668 16.1314 46 10.5 46C4.86864 46 0.273695 41.5668 0.0126953 36H0V11H0.0126953C0.00492612 10.8343 0 10.6676 0 10.5C0 4.70101 4.70101 0 10.5 0Z"/>
</mask>
<path d="M20.9873 11L19.9884 10.9532L19.9393 12H20.9873V11ZM21 11H22V10H21V11ZM21 36V37H22V36H21ZM20.9873 36V35H20.0331L19.9884 35.9532L20.9873 36ZM0.0126953 36L1.0116 35.9532L0.966909 35H0.0126953V36ZM0 36H-1V37H0V36ZM0 11V10H-1V11H0ZM0.0126953 11V12H1.06068L1.0116 10.9532L0.0126953 11ZM10.5 0V1C15.7467 1 20 5.25329 20 10.5H21H22C22 4.14873 16.8513 -1 10.5 -1V0ZM21 10.5H20C20 10.6483 19.9956 10.7988 19.9884 10.9532L20.9873 11L21.9862 11.0468C21.9945 10.8698 22 10.687 22 10.5H21ZM20.9873 11V12H21V11V10H20.9873V11ZM21 11H20V36H21H22V11H21ZM21 36V35H20.9873V36V37H21V36ZM20.9873 36L19.9884 35.9532C19.7523 40.9891 15.5946 45 10.5 45V46V47C16.6681 47 21.7003 42.1445 21.9862 36.0468L20.9873 36ZM10.5 46V45C5.40536 45 1.24771 40.9891 1.0116 35.9532L0.0126953 36L-0.986207 36.0468C-0.700319 42.1445 4.33191 47 10.5 47V46ZM0.0126953 36V35H0V36V37H0.0126953V36ZM0 36H1V11H0H-1V36H0ZM0 11V12H0.0126953V11V10H0V11ZM0.0126953 11L1.0116 10.9532C1.00436 10.7988 1 10.6483 1 10.5H0H-1C-1 10.687 -0.994509 10.8698 -0.986207 11.0468L0.0126953 11ZM0 10.5H1C1 5.25329 5.25329 1 10.5 1V0V-1C4.14873 -1 -1 4.14873 -1 10.5H0Z" fill="white" fill-opacity="0.5" mask="url(#path-1-inside-1_0_1548)"/>
<path d="M10.6464 37.3536C10.8417 37.5488 11.1583 37.5488 11.3536 37.3536L14.5355 34.1716C14.7308 33.9763 14.7308 33.6597 14.5355 33.4645C14.3403 33.2692 14.0237 33.2692 13.8284 33.4645L11 36.2929L8.17157 33.4645C7.97631 33.2692 7.65973 33.2692 7.46447 33.4645C7.2692 33.6597 7.2692 33.9763 7.46447 34.1716L10.6464 37.3536ZM11 10H10.5L10.5 37H11H11.5L11.5 10H11Z" fill="#FCFCFC"/>
</svg>
