<svg width="166" height="30" viewBox="0 0 166 30" fill="none" xmlns="http://www.w3.org/2000/svg">
<path d="M10.6937 7.30854C12.5527 7.30854 14.2562 7.9779 15.5807 9.08402L17.3807 6.94725C15.571 5.43241 13.2384 4.51757 10.6944 4.51757C4.95448 4.51757 0.285156 9.16789 0.285156 14.8834C0.285156 20.6002 4.9548 25.2505 10.695 25.2485C13.2391 25.2485 15.5713 24.3337 17.3811 22.8189L15.581 20.6821C14.2137 21.8299 12.4827 22.4589 10.6944 22.4576C6.50055 22.4576 3.08805 19.0598 3.08805 14.8834C3.08772 10.7072 6.50056 7.30757 10.695 7.30854H10.6937ZM68.3118 5.11628H62.7073C62.3359 5.11637 61.9797 5.26335 61.717 5.52492C61.4544 5.78648 61.3068 6.14121 61.3067 6.51112V23.2553C61.307 23.6252 61.4546 23.9799 61.7172 24.2414C61.9798 24.503 62.3359 24.6501 62.7073 24.6505H68.3122C73.7207 24.6505 78.1202 20.2689 78.1202 14.8831C78.1202 9.4966 73.7213 5.11499 68.3109 5.11628H68.3122H68.3118ZM68.3118 21.8605H64.1086V7.90693H68.3122C72.1752 7.90693 75.3163 11.0379 75.3163 14.884C75.3179 18.7327 72.1752 21.8595 68.3109 21.8605H68.3122H68.3118ZM85.7071 6.51177V23.256C85.7074 23.6258 85.8551 23.9805 86.1178 24.242C86.3804 24.5035 86.7366 24.6505 87.108 24.6508H98.7847V21.8605H88.5099V16.2785H95.0483V13.4882H88.5096V7.9066H98.7844V5.11628H87.108C86.9241 5.11611 86.7419 5.15208 86.572 5.22214C86.4021 5.29219 86.2477 5.39495 86.1177 5.52452C85.9877 5.65409 85.8847 5.80794 85.8145 5.97724C85.7443 6.14653 85.7083 6.32796 85.7087 6.51112H85.7071V6.51177ZM128.12 6.51177V23.256C128.121 23.6258 128.268 23.9805 128.531 24.242C128.794 24.5035 129.15 24.6505 129.521 24.6508H141.197V21.8605H130.923V16.2785H137.461V13.4882H130.923V7.9066H141.197V5.11628H129.522C129.338 5.11607 129.156 5.152 128.986 5.22202C128.816 5.29204 128.661 5.39477 128.531 5.52433C128.401 5.65389 128.298 5.80774 128.227 5.97706C128.157 6.14639 128.121 6.32787 128.121 6.51112H128.121L128.12 6.51177ZM114.786 5.11628H108.714C108.342 5.11637 107.986 5.26335 107.723 5.52492C107.461 5.78648 107.313 6.14121 107.313 6.51112V24.6508H110.115V16.2785H114.786C117.876 16.2785 120.391 13.7747 120.391 10.6976C120.39 7.62015 117.876 5.11499 114.784 5.11628H114.786ZM114.786 13.4879H110.115V7.90725H114.786C116.331 7.90725 117.587 9.15789 117.587 10.6976C117.587 12.2372 116.331 13.4892 114.784 13.4879H114.786ZM163.104 5.11628V19.4018L151.57 5.6179C151.386 5.39747 151.138 5.23898 150.86 5.16405C150.582 5.08912 150.288 5.10139 150.017 5.19919C149.746 5.29685 149.512 5.47516 149.347 5.70989C149.182 5.94461 149.093 6.22437 149.093 6.51112V24.6508H151.895V10.3656L163.429 24.1489C163.613 24.3691 163.861 24.5274 164.138 24.6022C164.416 24.677 164.71 24.6647 164.981 24.5669C165.251 24.4693 165.485 24.291 165.651 24.0562C165.816 23.8215 165.905 23.5417 165.905 23.255V5.11531H163.104V5.11628ZM53.3464 10.1263C53.3396 10.0902 53.3334 10.054 53.3237 10.0189C53.3178 9.99757 53.3107 9.97757 53.3036 9.9566C53.2938 9.92523 53.2828 9.89424 53.2706 9.8637C53.2618 9.84241 53.2518 9.82177 53.2421 9.80144C53.2287 9.77257 53.2141 9.74426 53.1983 9.71661C53.187 9.69628 53.174 9.67693 53.1617 9.65725C53.1147 9.58468 53.0604 9.51703 52.9998 9.45531C52.9829 9.43854 52.9661 9.42144 52.9479 9.40499C52.9247 9.38382 52.9004 9.36369 52.8754 9.34467C52.8559 9.32983 52.8372 9.31467 52.8171 9.3008C52.8096 9.29564 52.8035 9.28951 52.7957 9.28467L39.135 0.214991C38.9241 0.074812 38.6762 0 38.4227 0C38.1691 0 37.9212 0.074812 37.7104 0.214991L24.049 9.28435C24.0412 9.28919 24.0351 9.29531 24.0276 9.30048C24.0075 9.31467 23.9887 9.32951 23.9693 9.34402C23.925 9.37732 23.8835 9.41422 23.8452 9.45435C23.7836 9.5158 23.7292 9.58397 23.683 9.65757C23.6703 9.67725 23.658 9.69628 23.6464 9.71693C23.6302 9.74467 23.6162 9.77306 23.6029 9.80112C23.5932 9.82177 23.5829 9.84241 23.5741 9.86338C23.5618 9.89391 23.5507 9.9249 23.5408 9.95628C23.5343 9.97725 23.5268 9.99757 23.5213 10.0166C23.5116 10.0518 23.5051 10.0876 23.4986 10.124C23.4951 10.1424 23.4905 10.1605 23.4883 10.1792C23.4809 10.2346 23.4771 10.2904 23.4769 10.3463V19.4182C23.4769 19.4743 23.4808 19.5305 23.4889 19.5853C23.4918 19.6053 23.497 19.6214 23.5009 19.6408C23.5074 19.6769 23.5132 19.7127 23.5252 19.7489C23.5307 19.7689 23.5372 19.7892 23.5453 19.8111C23.5553 19.8434 23.5654 19.8753 23.5777 19.9047C23.5861 19.9247 23.5978 19.9447 23.6055 19.9647C23.6418 20.0434 23.6878 20.1173 23.7426 20.1847C23.7565 20.2047 23.7707 20.2208 23.7869 20.2402C23.8073 20.264 23.8271 20.2882 23.8511 20.3095C23.8676 20.3256 23.8835 20.3453 23.9035 20.3576C23.9269 20.3776 23.9521 20.3976 23.9761 20.4185C23.9955 20.4347 24.0163 20.4466 24.0325 20.4621C24.0399 20.466 24.0444 20.474 24.0525 20.4779L37.7104 29.5521C37.9261 29.6966 38.1736 29.7689 38.423 29.7676C38.6766 29.7671 38.9244 29.6923 39.1356 29.5524L52.797 20.4824C52.8044 20.4779 52.8109 20.4721 52.818 20.4669C52.8384 20.4527 52.8572 20.4379 52.8763 20.4231C52.9016 20.4037 52.9262 20.3831 52.9496 20.3624C52.967 20.3466 52.9839 20.3295 53.0011 20.3127C53.0397 20.2737 53.0756 20.232 53.1083 20.1879C53.1406 20.1438 53.1709 20.0983 53.199 20.0514C53.2155 20.0237 53.2297 19.995 53.2433 19.9663C53.2531 19.9456 53.2628 19.9253 53.2719 19.9043C53.284 19.8736 53.295 19.8424 53.3049 19.8108C53.3117 19.7902 53.3188 19.7698 53.325 19.7489C53.3344 19.7134 53.3409 19.6776 53.3477 19.6414C53.3509 19.6231 53.3558 19.605 53.3574 19.5863C53.3648 19.5308 53.369 19.4756 53.369 19.4189V10.3489C53.3687 10.293 53.3649 10.2372 53.3577 10.1818C53.3545 10.1621 53.3483 10.146 53.3444 10.1263H53.3464ZM38.4223 17.9098L33.8797 14.884L38.4223 11.8576L42.9657 14.884L38.4223 17.9098ZM37.1383 9.63564L31.5695 13.345L27.0744 10.3505L37.1386 3.66886V9.63564H37.1383ZM29.2593 14.8834L26.0463 17.0237V12.7431L29.2596 14.8834H29.2593ZM31.5695 16.4237L37.1383 20.1327V26.0989L27.0741 19.4166L31.5695 16.4224V16.4234V16.4237ZM39.707 20.1318L45.2759 16.4227L49.7712 19.4169L39.707 26.0985V20.1318ZM47.5861 14.8843L50.7994 12.7437V17.0243L47.5861 14.8834V14.8843ZM45.2759 13.345L39.707 9.63596V3.66886L49.7712 10.3505L45.2759 13.345Z" fill="#FCFCFC"/>
</svg>
