<svg width="167" height="39" viewBox="0 0 167 39" fill="none" xmlns="http://www.w3.org/2000/svg">
<path d="M51.1536 15.5756C53.0514 15.5756 54.5898 14.1047 54.5898 12.2906C54.5898 10.4762 53.0514 9.00565 51.1536 9.00565C49.2557 9.00565 47.7173 10.4762 47.7173 12.2906C47.7173 14.1047 49.2557 15.5756 51.1536 15.5756ZM164.56 26.7992C164.037 26.4479 163.634 26.3897 163.299 27.0719C157.527 39.0183 147.802 33.0569 148.768 33.5815C150.925 32.6384 156.599 28.2896 155.741 22.2848C155.22 18.6151 151.925 16.9873 148.427 17.5702C142.32 18.5876 140.074 24.8821 141.218 30.4547C141.418 31.4118 141.775 32.201 142.133 32.9742C135.232 38.3371 132.492 28.1735 132.181 26.959C132.169 26.894 137.509 22.6399 138.994 12.5026C140.551 1.87824 137.005 -0.0562785 133.378 0.00407865C126.668 0.115817 124.854 13.5154 127.291 24.683C127.087 24.7338 126.137 25.2365 124.611 25.2928C123.513 21.9911 118.822 19.0971 117.594 20.2123C114.521 23.002 118.339 28.4561 121.026 28.8839C119.412 38.3835 109.319 36.0308 111.198 24.1293C114.485 18.2963 116.984 9.62315 116.538 4.38725C116.38 2.53351 114.946 0.0498882 111.703 0.173079C105.465 0.408936 104.787 13.8122 105.518 23.3251C105.482 23.0908 105.135 24.4809 102.578 25.1721C101.974 21.9645 96.5695 18.7448 95.2974 20.2927C92.916 23.1899 97.0431 28.3555 98.9979 28.7158C97.3841 38.2151 87.2916 35.8624 89.1704 23.9609C92.457 18.1282 94.9564 9.45508 94.5104 4.21917C94.3523 2.36513 92.9186 -0.118493 89.675 0.00438817C83.4369 0.240555 82.7588 13.6439 83.4901 23.1568C83.4535 22.9187 83.0982 24.3546 80.4376 25.0343C80.3485 20.8728 74.9247 18.9646 73.6217 20.2924C71.2996 22.6594 74.1535 27.5158 76.7937 28.7158C75.1799 38.2151 65.0874 35.8624 66.9662 23.9609C70.2528 18.1282 72.7525 9.45508 72.3062 4.21917C72.1484 2.36513 70.7143 -0.118493 67.4708 0.00438817C61.233 0.240555 60.7311 14.3177 61.4623 23.8303C59.4077 32.2435 52.5174 42.7499 53.4126 21.7032C53.501 20.2268 53.5975 19.6663 52.8273 19.1135C52.2502 18.6838 50.9379 18.8906 50.2205 18.9076C49.3486 18.9411 49.13 19.4286 48.9373 20.1655C48.4884 22.0685 48.4078 23.9132 48.3437 26.4303C48.3016 27.6077 48.2028 28.1571 47.7283 29.7626C47.2545 31.3678 44.5511 34.3018 43.0711 33.8112C41.0177 33.1364 41.6914 27.5966 42.0761 23.7904C42.3968 20.7824 41.3701 19.4316 38.7396 18.9404C37.1996 18.6337 36.264 18.6807 34.6602 18.1976C33.1435 17.7407 32.8005 14.999 29.5657 15.9127C27.7964 16.4129 28.9338 19.9956 28.5086 22.651C26.418 35.7132 22.0681 36.072 20.05 29.7267C29.1388 8.45284 22.6792 0.0659834 18.898 0.0659834C14.9598 0.0659834 10.458 2.65855 12.3643 19.2466C11.4374 18.9881 11.1524 18.8488 10.1377 18.8488C4.39902 18.8488 0.489258 23.2824 0.489258 28.7517C0.489258 34.221 4.39934 38.6549 10.138 38.6549C13.5257 38.6549 15.9042 37.1825 17.7055 34.9047C18.8809 36.5133 20.3121 38.6797 22.9293 38.5822C30.7303 38.2919 32.999 22.9986 33.2669 22.1456C34.1008 22.2684 34.8898 22.5009 35.6599 22.6238C36.9431 22.8079 37.0364 23.2933 37.0072 24.5267C36.6672 34.928 38.6755 38.5698 43.231 38.5698C45.7692 38.5698 48.0315 36.1865 49.5899 34.4822C50.7539 36.7783 52.6087 38.4996 55.097 38.5695C61.1265 38.7128 63.435 29.5283 63.2245 30.737C63.0594 31.6854 65.1807 38.5178 71.388 38.5426C79.077 38.5735 80.5062 30.4925 80.6766 29.1389C80.698 28.8696 80.7074 28.8975 80.6766 29.1389L80.6708 29.221C83.1118 28.787 84.3713 27.5362 84.3713 27.5362C84.3713 27.5362 86.3314 38.6682 93.5919 38.5429C101.132 38.4123 102.553 31.1075 102.74 29.6831C102.765 29.3451 102.779 29.3847 102.74 29.6831C102.739 29.697 102.738 29.7109 102.737 29.7249C105.637 28.7167 106.399 27.7049 106.399 27.7049C106.399 27.7049 107.957 38.6156 115.62 38.711C122.448 38.7964 124.979 32.1135 124.994 29.3163C126.146 29.3281 128.276 28.6632 128.226 28.6254C128.226 28.6254 130.727 38.165 137.712 38.6549C140.992 38.8849 143.452 36.8913 144.854 35.9819C148.15 38.5327 159.124 41.7907 166.054 30.5627C167.032 28.9514 164.929 27.0478 164.56 26.7992ZM9.86109 34.9512C6.51292 34.9512 4.36598 31.9924 4.36598 28.8022C4.36598 25.6122 6.33673 22.6535 9.6849 22.6535C11.1915 22.6535 12.0297 22.812 13.2031 23.7873C13.4159 24.5886 14.0189 26.4371 14.3124 27.2765C14.7055 28.3998 15.1732 29.3559 15.6448 30.3965C14.9711 33.0656 12.7626 34.9512 9.86109 34.9512ZM18.02 23.8811C17.8808 23.669 17.9099 23.7993 17.7541 23.5991C17.1404 22.0035 15.9576 18.4421 15.8206 14.3969C15.6658 9.82093 16.4638 4.4572 18.8164 4.4572C20.4105 4.4572 22.1047 15.3277 18.0197 23.8811H18.02ZM65.1629 19.1131C64.7853 16.3977 64.7655 4.29222 67.8063 4.62558C69.4853 5.27558 66.7418 16.6986 65.1629 19.1131ZM87.3671 19.1131C86.9895 16.3977 86.9697 4.29222 90.0105 4.62558C91.6895 5.27558 88.946 16.6986 87.3671 19.1131ZM109.395 19.2818C109.017 16.5661 108.998 4.4606 112.038 4.79396C113.717 5.44396 110.974 16.8672 109.395 19.2818ZM133.714 3.91708C136.494 3.6416 136.379 15.2444 130.799 22.5696C130.079 19.9219 128.976 4.82615 133.714 3.91677V3.91708ZM145.399 28.8839C144.506 24.5731 146.813 21.7419 149.192 21.4315C150.023 21.3046 151.228 21.8193 151.468 22.7816C151.864 24.5951 151.411 27.2852 146.088 30.6983C146.095 30.7274 145.598 29.844 145.399 28.8839H145.399Z" fill="#FCFCFC"/>
</svg>
