<svg width="10" height="14" viewBox="0 0 10 14" fill="none" xmlns="http://www.w3.org/2000/svg">
<path d="M6.78488 2.53125V8.85938H3.18738V2.53125H6.78488ZM8.13394 0H1.83832C1.09353 0 0.489258 0.566895 0.489258 1.26562V12.2344C0.489258 12.9331 1.09353 13.5 1.83832 13.5H8.13394C8.87874 13.5 9.48301 12.9331 9.48301 12.2344V1.26562C9.48301 0.566895 8.87874 0 8.13394 0ZM1.83832 12.6562C1.59099 12.6562 1.38863 12.4664 1.38863 12.2344V1.26562C1.38863 1.03359 1.59099 0.84375 1.83832 0.84375H8.13394C8.38127 0.84375 8.58363 1.03359 8.58363 1.26562V12.2344C8.58363 12.4664 8.38127 12.6562 8.13394 12.6562H1.83832ZM7.34699 1.6875H2.62527C2.43978 1.6875 2.28801 1.82988 2.28801 2.00391V9.38672C2.28801 9.56074 2.43978 9.70312 2.62527 9.70312H7.34699C7.53249 9.70312 7.68426 9.56074 7.68426 9.38672V2.00391C7.68426 1.82988 7.53249 1.6875 7.34699 1.6875ZM5.99793 10.9688H3.97434C3.78884 10.9688 3.63707 11.1111 3.63707 11.2852V11.4961C3.63707 11.6701 3.78884 11.8125 3.97434 11.8125H5.99793C6.18343 11.8125 6.3352 11.6701 6.3352 11.4961V11.2852C6.3352 11.1111 6.18343 10.9688 5.99793 10.9688Z" fill="#FCFCFC"/>
</svg>
